<?xml version="1.0" encoding="utf-8"?>
<svg viewBox="0 0 187.266 191.948" xmlns="http://www.w3.org/2000/svg">
  <path d="M 160.494 22.991 C 166.594 35.891 160.894 58.291 162.794 73.891 C 164.594 89.391 174.094 98.191 175.394 107.391 C 176.594 116.591 169.694 126.191 162.694 137.691 C 155.594 149.191 148.494 162.391 137.894 166.791 C 127.294 171.091 113.394 166.691 99.094 162.791 C 84.794 158.791 70.194 155.391 62.994 146.091 C 55.894 136.791 56.194 121.591 52.194 105.891 C 48.194 90.191 39.894 73.991 44.194 63.091 C 48.394 52.191 65.194 46.491 79.694 37.391 C 94.094 28.291 106.294 15.791 121.294 11.291 C 136.394 6.691 154.394 10.091 160.494 22.991 Z" style="fill: rgb(42, 102, 39);"/>
  <g opacity="0.4" transform="matrix(1, 0, 0, 1, 7.989912986755371, 9.341582298278809)">
    <path d="M117.504 13.6495C123.604 26.5495 117.904 48.9495 119.804 64.5495C121.604 80.0495 131.104 88.8495 132.404 98.0495C133.604 107.249 126.704 116.849 119.704 128.349C112.604 139.849 105.504 153.049 94.9035 157.449C84.3035 161.749 70.4035 157.349 56.1035 153.449C41.8035 149.449 27.2035 146.049 20.0035 136.749C12.9035 127.449 13.2035 112.249 9.20353 96.5495C5.20353 80.8495 -3.09647 64.6495 1.20353 53.7495C5.40353 42.8495 22.2035 37.1495 36.7035 28.0495C51.1035 18.9495 63.3035 6.44947 78.3035 1.94947C93.4035 -2.65053 111.404 0.749471 117.504 13.6495Z" style="fill: rgb(85, 197, 29);"/>
  </g>
</svg>